<?xml version="1.0" encoding="UTF-8"?>
<svg id="Layer_2" data-name="Layer 2" xmlns="http://www.w3.org/2000/svg" viewBox="0 0 562.97 246.79">
  <defs>
    <style>
      .cls-1 {
        fill: #fff;
      }
    </style>
  </defs>
  <g id="Layer_1-2" data-name="Layer 1">
    <g>
      <g>
        <path class="cls-1" d="M95.02,246.05c-19.69,0-33.28-13.71-33.28-33.39s11.97-33.57,31.75-33.57c6.08,0,13.21,1.91,18.75,4.4l-3.91,9.69c-4.76-2.1-9.79-3.71-15.04-3.71-12.53,0-18.81,10.56-18.81,22.06,0,13.88,7.41,24.14,22.07,24.14,4.47,0,8.85-1.14,12.84-3.05l3.04,9.14c-5.4,2.66-11.41,4.29-17.39,4.29"/>
        <path class="cls-1" d="M137.97,246.14c-14.55,0-23.87-10.66-23.87-24.82s9.31-24.83,23.87-24.83,23.87,10.56,23.87,24.83-9.29,24.82-23.87,24.82m0-39.77c-8.47,0-11.23,7.83-11.23,15.04s2.76,14.93,11.23,14.93,11.23-7.71,11.23-14.93-2.76-15.04-11.23-15.04"/>
        <path class="cls-1" d="M199.07,245.09v-29.85c0-5.81-3.82-8.73-9.43-8.73-3.23,0-6.55,.93-9.61,2.07,0,0,.21,1.32,.19,2l.02,34.51h-11.41v-37.18c0-2.28-.68-6.66-.68-6.66,6.64-2.37,14.55-4.76,21.59-4.76,11.6,0,20.72,3.8,20.73,16.93v31.66h-11.41Z"/>
        <path class="cls-1" d="M236.81,246.79c-8.66,0-14.64-3.98-14.64-13.21v-26.25l-5.41-.28v-9.03l5.41-.28v-13.2h11.41v13.01h13.31v9.91h-13.31v25.28c0,2.94,1.51,4.09,4.37,4.09s5.73-.95,8.47-1.91l3.15,9.23c-4.19,1.43-8.27,2.65-12.75,2.65"/>
        <path class="cls-1" d="M280.93,207.35c-1.53-.48-4.18-.97-6.28-.97-2.84,0-5.8,.4-8.56,1.24l.1,.96v36.51h-11.39v-36.23c0-2.35-.87-7.12-.87-7.12,6.86-2.86,14.2-5.24,21.69-5.24,2.95,0,6.17,.39,8.73,1.05l-3.41,9.8Z"/>
        <path class="cls-1" d="M307.69,246.14c-14.55,0-23.83-10.66-23.83-24.82s9.28-24.83,23.83-24.83,23.88,10.56,23.86,24.83c0,14.26-9.29,24.82-23.86,24.82m0-39.77c-8.47,0-11.22,7.81-11.22,15.04s2.76,14.93,11.22,14.93,11.23-7.71,11.23-14.93-2.76-15.05-11.23-15.05"/>
        <polygon class="cls-1" points="349.9 175.28 338.51 175.28 338.51 224.27 338.51 245.09 349.9 245.09 349.9 175.28"/>
        <path class="cls-1" d="M372.07,246.14c-5.41,0-10.95-1.33-15.68-3.14l3.31-8.94c3.34,1.44,7.81,2.85,11.43,2.85s7.22-1.03,7.22-5.23c0-8.46-20.74-5.9-20.74-21.48,0-9.8,10.1-13.71,17.6-13.71,5.05,0,10.08,1.15,13.7,2.86l-3.23,8.85c-3.07-1.14-7.23-2.16-10.48-2.19-2.85,0-5.88,.86-5.88,4.29,0,8,21.67,4.38,21.67,21.57,0,10.58-10.26,14.28-18.92,14.28"/>
        <path class="cls-1" d="M12.47,165.45c-2.72,.94-6.8,2.06-10.39,2.97l-2.08-10.28c2.33-.39,5.13-1,7.1-1.69,6.56-2.31,7.14-7.06,7.14-14.7v-48.49h11.81v46.66c0,12.81-1.86,21.33-13.58,25.52"/>
        <path class="cls-1" d="M57.01,158.81c-14.53,0-23.85-10.63-23.85-24.8s9.32-24.83,23.85-24.83,23.9,10.56,23.9,24.83-9.33,24.8-23.9,24.8m0-39.73c-8.43,0-11.21,7.79-11.21,15.04s2.78,14.91,11.21,14.91,11.24-7.7,11.24-14.91-2.75-15.04-11.24-15.04"/>
        <path class="cls-1" d="M118.65,157.76v-30.04c0-5.22-3.23-8.64-7.97-8.64-3.74,0-7.81,1.6-10.97,3.5v35.18h-11.39V87.97s11.39,0,11.39,0v24.34c4.39-1.89,9.23-3.14,14.1-3.14,10.64,0,16.23,6.28,16.23,16.84v31.74h-11.39Z"/>
        <path class="cls-1" d="M169.99,157.76v-29.84c0-5.81-3.79-8.75-9.4-8.75-3.25,0-6.56,.96-9.62,2.11,0,0,.21,1.31,.21,2v34.49h-11.42v-37.17c0-2.29-.68-6.66-.68-6.66,6.68-2.36,14.55-4.75,21.6-4.73,11.59-.02,20.72,3.77,20.72,16.9v31.66h-11.42Z"/>
        <path class="cls-1" d="M203.69,158.81c-5.43,0-10.94-1.32-15.7-3.14l3.34-8.92c3.32,1.43,7.8,2.86,11.41,2.86s7.24-1.06,7.24-5.23c0-8.48-20.75-5.92-20.75-21.51,0-9.78,10.08-13.67,17.61-13.68,5.03,0,10.08,1.15,13.68,2.85l-3.23,8.85c-3.03-1.15-7.24-2.21-10.45-2.21-2.88,0-5.9,.85-5.9,4.29,0,7.99,21.68,4.38,21.68,21.59,0,10.55-10.27,14.27-18.93,14.25"/>
        <path class="cls-1" d="M251.56,158.82c-14.57-.01-23.9-10.64-23.9-24.81s9.33-24.81,23.9-24.83c14.53,0,23.88,10.56,23.88,24.83s-9.34,24.8-23.88,24.81m0-39.75c-8.47,0-11.21,7.81-11.21,15.04-.03,7.21,2.74,14.91,11.21,14.91s11.21-7.7,11.21-14.91-2.75-15.05-11.21-15.04"/>
        <path class="cls-1" d="M313.11,157.76v-29.84c0-5.81-3.79-8.75-9.42-8.75-3.22,0-6.55,.96-9.59,2.11,0,0,.2,1.31,.2,2v34.49h-11.39v-37.17c0-2.29-.67-6.66-.67-6.66,6.62-2.36,14.51-4.75,21.55-4.75,11.59,.02,20.72,3.79,20.72,16.92v31.66h-11.41Z"/>
        <path class="cls-1" d="M537.79,26.59c-1.24-1.27-2.52-2.52-3.84-3.72-13.95,6.58-25.47,14.8-34.24,24.53,1.13,7.59,1.93,15.36,2.28,23.32,1.2,27.61-2.85,50.73-10.85,69.46,5.9,10.09,14.15,19.14,24.8,26.65,3.02-1.62,5.94-3.41,8.74-5.36-16.16-18.85-24.09-42.11-22.69-67.06,1.49-26.86,14.84-50.58,35.79-67.81"/>
        <path class="cls-1" d="M517.19,10.85c-1.57-.88-3.18-1.72-4.82-2.5-6.73,3.07-13.05,6.66-18.9,10.71,1.18,4.02,2.26,8.13,3.22,12.33,6.48-7.34,13.49-14.2,20.5-20.54"/>
        <path class="cls-1" d="M491.45,175.56c3.74-.74,7.39-1.72,10.94-2.91-5.87-6.49-11.6-13.73-16.67-21.47-2.54,4.48-5.32,8.69-8.35,12.56,4.28,4.21,8.98,8.15,14.08,11.81"/>
        <path class="cls-1" d="M560.6,68.18c-9.06,7.79-15.29,17.77-17.36,29.29-2.24,12.33,.8,24.64,7.72,35.6,7.63-13.1,12.02-28.32,12.02-44.58,0-6.99-.83-13.78-2.37-20.32"/>
        <path class="cls-1" d="M533.34,95.85c1.8-16.97,8.15-34.74,19.62-48.31-.89-1.69-1.8-3.36-2.79-4.99-21.94,11.99-36.12,30.94-38.19,54.21-1.83,20.55,7.75,41.18,23.57,55.83,2.44-2.32,4.76-4.79,6.91-7.38-7.65-14.6-11.05-31.24-9.12-49.37"/>
        <path class="cls-1" d="M412.62,24.62c-15.35,14.81-25.36,35.08-26.92,57.7,14.78-14.16,24.02-36.85,26.92-57.7"/>
        <path class="cls-1" d="M430.11,11.48c-1.37,.79-2.73,1.62-4.05,2.47-8.47,39.93-22.45,66.41-39.75,86.7,.63,4.48,1.56,8.86,2.83,13.11,36.27-22.3,43.92-72.04,40.97-102.29"/>
        <path class="cls-1" d="M502.28,70.72c-1.1-25.42-6.43-49.18-14.88-70-1.69-.24-3.41-.44-5.15-.59,7.94,67.26,.21,132.13-39.13,171.51,7.06,2.65,14.54,4.42,22.33,5.19,24.2-21.26,38.99-56.56,36.83-106.1"/>
        <path class="cls-1" d="M467.71,0c-1.69,.12-3.37,.29-5.04,.5,1.59,43.81-5.79,116.47-49.06,152.81,4.01,3.75,8.37,7.13,13.03,10.09,56.05-38.1,55.78-112.63,41.06-163.41"/>
        <path class="cls-1" d="M448.1,3.66c-1.49,.45-2.96,.94-4.4,1.47-2.56,45.08-14.66,93.05-48.5,123.75,2.21,4.33,4.77,8.44,7.64,12.32,45.9-27.71,55.28-93.38,45.26-137.55"/>
      </g>
      <g>
        <path class="cls-1" d="M418.74,216.99l-11.25,29.14h6l2.08-5.7h11.91l1.83,5.7h6.21l-10.29-29.14h-6.5Zm-1.5,18.81l2.25-6.2c.96-2.69,2.37-7.44,2.37-7.44,0,0,1.37,4.75,2.21,7.44l1.96,6.2h-8.79Z"/>
        <path class="cls-1" d="M445.52,229.14l-.42-3.68h-4.21c.04,.7,.25,3.22,.25,3.93v16.74h5.62v-12.94c.71-1.07,1.79-2.73,3.79-2.73,.58,0,1.21,.13,1.96,.58l1.62-6.04c-.42-.12-1-.21-1.79-.21-3.87,0-5.71,2.11-6.83,4.34Z"/>
        <path class="cls-1" d="M476.89,232.7c0-5.7-3-7.9-9.29-7.9-2.71,0-5.25,.87-8.04,2.31l1.62,3.76c2.04-1.12,4.12-2.07,7.2-2.07,1.54,0,2.87,1.03,2.87,3.43v.74h-2.17c-6.21,0-10.25,2.4-10.25,7.11,0,4.96,3.87,6.7,7.16,6.7,2.67,0,4.96-1.24,6.29-3.02l.62,2.36h4.21c0-.7-.25-3.47-.25-4.3v-9.13Zm-5.62,8.22c-.58,.87-1.79,1.86-3.54,1.86-1.96,0-3.12-1.08-3.12-2.77,0-2.73,2.17-3.47,4.96-3.47h1.71v4.38Z"/>
        <path class="cls-1" d="M495.55,224.8c-2.08,0-3.75,.7-5.12,1.98v-10.42h-5.62v25.87c0,.99-.21,2.98-.25,3.89h4.21l.83-1.94c1.21,1.78,3.62,2.61,5.58,2.61,4.79,0,9.04-3.64,9.04-11.08s-3.62-10.91-8.66-10.91Zm-2.25,17.65c-.83,0-2.17-.29-2.87-1.08v-10.33c.96-1.2,2.37-1.9,3.79-1.9,1.92,0,4.25,1.28,4.25,6.65,0,4.46-2.04,6.65-5.16,6.65Z"/>
        <rect class="cls-1" x="511.26" y="225.46" width="5.62" height="20.67"/>
        <rect class="cls-1" x="511.09" y="216.37" width="5.96" height="5.54"/>
        <path class="cls-1" d="M541.75,232.7c0-5.7-3-7.9-9.29-7.9-2.71,0-5.25,.87-8.04,2.31l1.62,3.76c2.04-1.12,4.12-2.07,7.2-2.07,1.54,0,2.87,1.03,2.87,3.43v.74h-2.17c-6.21,0-10.25,2.4-10.25,7.11,0,4.96,3.87,6.7,7.16,6.7,2.67,0,4.96-1.24,6.29-3.02l.62,2.36h4.21c0-.7-.25-3.47-.25-4.3v-9.13Zm-5.62,8.22c-.58,.87-1.79,1.86-3.54,1.86-1.96,0-3.12-1.08-3.12-2.77,0-2.73,2.17-3.47,4.96-3.47h1.71v4.38Z"/>
      </g>
    </g>
  </g>
</svg>